<svg xmlns="http://www.w3.org/2000/svg" xmlns:xlink="http://www.w3.org/1999/xlink" width="30" height="30" viewBox="0 0 30 30"><defs><clipPath id="a"><rect width="30" height="30" transform="translate(1115 1636)" fill="#ff3336"/></clipPath></defs><g transform="translate(-1115 -1636)" clip-path="url(#a)"><path d="M11.509,29.622a.377.377,0,0,0,.378.378h5.386a.377.377,0,0,0,.378-.378V14.882h3.9a.378.378,0,0,0,.377-.347l.375-4.44a.378.378,0,0,0-.376-.41H17.65V6.534A1.337,1.337,0,0,1,18.987,5.2H22a.377.377,0,0,0,.378-.378V.378A.378.378,0,0,0,22,0H16.913a5.4,5.4,0,0,0-5.4,5.4V9.685H8.815a.378.378,0,0,0-.378.377V14.5a.377.377,0,0,0,.378.378h2.693Z" transform="translate(1114.594 1636)" fill="#ff3336" fill-rule="evenodd"/></g></svg>