<svg xmlns="http://www.w3.org/2000/svg" xmlns:xlink="http://www.w3.org/1999/xlink" width="30" height="30" viewBox="0 0 30 30"><defs><clipPath id="a"><rect width="30" height="30" transform="translate(1065 1636)" fill="#ff3336"/></clipPath></defs><g transform="translate(-1065 -1636)" clip-path="url(#a)"><path d="M27.17,20.963a6.206,6.206,0,0,1-6.206,6.206H9.037A6.206,6.206,0,0,1,2.83,20.963V9.036A6.206,6.206,0,0,1,9.037,2.829H20.963A6.206,6.206,0,0,1,27.17,9.036V20.963ZM30,9.036A9.037,9.037,0,0,0,20.963,0H9.038A9.036,9.036,0,0,0,0,9.036V20.963A9.037,9.037,0,0,0,9.038,30H20.963A9.038,9.038,0,0,0,30,20.963Zm-14.949,10.9A4.746,4.746,0,1,1,19.8,15.193a4.751,4.751,0,0,1-4.746,4.746Zm0-12.154a7.408,7.408,0,1,0,7.409,7.408,7.417,7.417,0,0,0-7.409-7.408Zm7.841-2.262a1.764,1.764,0,1,0,1.764,1.764,1.764,1.764,0,0,0-1.764-1.764Z" transform="translate(1065 1636)" fill="#ff3336"/></g></svg>