<svg xmlns="http://www.w3.org/2000/svg" xmlns:xlink="http://www.w3.org/1999/xlink" width="30" height="30" viewBox="0 0 30 30"><defs><clipPath id="a"><rect width="30" height="30" transform="translate(1015 1636)" fill="#ff3336"/></clipPath></defs><g transform="translate(-1015 -1636)" clip-path="url(#a)"><g transform="translate(1015 1636)"><path d="M14.273.017A14.885,14.885,0,0,0,1.741,21.636L.161,29.3a.579.579,0,0,0,.7.68L8.375,28.2A14.88,14.88,0,1,0,14.273.017Zm8.965,23.1a11.658,11.658,0,0,1-13.423,2.2l-1.046-.521L4.162,25.884l.97-4.707-.516-1.009A11.66,11.66,0,0,1,6.762,6.641,11.65,11.65,0,1,1,23.238,23.117Z" fill="#ff3336"/><path d="M22.221,18.105l-2.882-.828a1.074,1.074,0,0,0-1.063.28l-.7.718a1.05,1.05,0,0,1-1.141.241,15.385,15.385,0,0,1-4.964-4.377,1.05,1.05,0,0,1,.083-1.164l.615-.8a1.074,1.074,0,0,0,.133-1.091L11.085,8.347a1.075,1.075,0,0,0-1.678-.384,4.847,4.847,0,0,0-1.875,2.859c-.2,2.019.661,4.565,3.936,7.621,3.783,3.531,6.813,4,8.785,3.52a4.847,4.847,0,0,0,2.577-2.247A1.075,1.075,0,0,0,22.221,18.105Z" fill="#ff3336"/></g></g></svg>